 http://imageshack.us/m/29/2489/ispitonyoul9j0c.jpg

Country.......: USA
Genre.........: Horror, Thriller, Crime
Date release..: 01.05.2010 [World]
Director......: Steven R. Monroe
Writers.......: Meir Zarchi, Stuart Morse
Duration......: 108 min.
More..........: http://www.imdb.com/title/tt1242432
Trailer.......: http://www.imdb.com/video/imdb/vi4075488793
Trailer.......:

Pilot :
A writer who is brutalized during her cabin retreat seeks revenge on her attackers, who left her for dead. 

Cats :
Sarah Butler   	 ...  	Jennifer
Jeff Branson 	... 	Johnny
Andrew Howard 	... 	Storch
Daniel Franzese 	... 	Stanley
Rodney Eastman 	... 	Andy
Chad Lindberg 	... 	Matthew
Tracey Walter 	... 	Earl
Mollie Milligan 	... 	Mrs. Storch
Saxon Sharbino 	... 	Chastity
Amber Dawn Landrum 	... 	Girl at Gas Station

Data Technical :
!!! SAMPLE !!!
Audio.....: English
Subtitles.: English .srt, Spanish .srt, Polish .txt
Format/Info                      : Audio Video Interleave
File size                        : 702 MiB
Duration                         : 1h 48mn
Overall bit rate                 : 906 Kbps
Writing application              : VirtualDubMod 1.5.4.1 (build 2178/release)
Writing library                  : VirtualDubMod build 2178/release
Video
ID                               : 0
Format                           : MPEG-4 Visual
Format profile                   : Advanced Simple@L5
Format settings, BVOP            : Yes
Format settings, QPel            : No
Format settings, GMC             : No warppoints
Format settings, Matrix          : Default (H.263)
Muxing mode                      : Packed bitstream
Codec ID                         : DX50
Codec ID/Hint                    : DivX 5
Duration                         : 1h 48mn
Bit rate                         : 785 Kbps
Width                            : 640 pixels
Height                           : 272 pixels
Display aspect ratio             : 2.35:1
Frame rate                       : 23.976 fps
Color space                      : YUV
Chroma subsampling               : 4:2:0
Bit depth                        : 8 bits
Scan type                        : Progressive
Bits/(Pixel*Frame)               : 0.188
Stream size                      : 608 MiB (87%)
Writing library                  : XviD 1.2.1 (UTC 2008-12-04)
Audio
ID                               : 1
Format                           : MPEG Audio
Format version                   : Version 1
Format profile                   : Layer 3
Mode                             : Joint stereo
Codec ID                         : 55
Codec ID/Hint                    : MP3
Duration                         : 1h 48mn
Bit rate mode                    : Constant
Bit rate                         : 112 Kbps
Channel(s)                       : 2 channels
Sampling rate                    : 44.1 KHz
Video delay                      : 26ms
Stream size                      : 86.7 MiB (12%)
Alignment                        : Split accross interleaves
Interleave, duration             : 42 ms (1.00 video frame)
Interleave, preload duration     : 500 ms
Writing library                  : LAME3.92

Screen : 
http://imageshack.us/m/651/7854/ispitonyourgrave2010s1.jpg 
http://imageshack.us/m/859/8853/ispitonyourgrave2010s2.jpg 
http://imageshack.us/m/222/6306/ispitonyourgrave2010s3.jpg 
http://imageshack.us/m/18/3163/ispitonyourgrave2010s4.jpg 
http://imageshack.us/m/812/9645/ispitonyourgrave2010s5.jpg